<?xml version="1.0" encoding="utf-8"?>
<!-- Generator: Adobe Illustrator 18.0.0, SVG Export Plug-In . SVG Version: 6.00 Build 0)  -->
<!DOCTYPE svg PUBLIC "-//W3C//DTD SVG 1.1//EN" "http://www.w3.org/Graphics/SVG/1.1/DTD/svg11.dtd">
<svg version="1.1" id="Layer_1" xmlns="http://www.w3.org/2000/svg" xmlns:xlink="http://www.w3.org/1999/xlink" x="0px" y="0px"
	 viewBox="0 0 80 72" enable-background="new 0 0 80 72" xml:space="preserve">
<g id="movie-camera">
	<path id="XMLID_239_" fill="#4B494A" d="M79.2,36.4c-0.5-0.4-1.2-0.6-1.9-0.4L61,39.6v-6.2c4-3.5,6.6-8.6,6.6-14.3
		c0-10.5-8.5-19-19-19c-9.2,0-16.9,6.5-18.7,15.2c-2.6-5.1-7.9-8.7-14.1-8.7C7.1,6.6,0,13.6,0,22.3c0,4,1.6,7.7,4.1,10.5
		c0,0,0,0,0,0.1v35.7c0,1.8,1.5,3.3,3.4,3.3h50.2c1.9,0,3.4-1.5,3.4-3.3v-9.3L77.3,63c0.2,0,0.3,0.1,0.5,0.1c0.5,0,1-0.2,1.3-0.5
		c0.5-0.4,0.8-1,0.8-1.7V38.1C80,37.4,79.7,36.8,79.2,36.4z M48.6,2.5c9.2,0,16.6,7.4,16.6,16.6c0,9.1-7.5,16.6-16.6,16.6
		S32,28.2,32,19.1C32,10,39.4,2.5,48.6,2.5z M35.3,32.7h-7.7c1.6-1.8,2.7-3.9,3.4-6.2C32,28.8,33.5,31,35.3,32.7z M15.8,9
		c7.4,0,13.4,6,13.4,13.3c0,7.3-6,13.3-13.4,13.3s-13.4-6-13.4-13.3C2.4,15,8.4,9,15.8,9z M58.6,68.6c0,0.5-0.4,0.8-1,0.8H7.4
		c-0.5,0-1-0.4-1-0.8V35c2.6,1.9,5.8,3.1,9.3,3.1c3.4,0,6.6-1.1,9.2-3c0,0,0.1,0,0.1,0h13.3c2.9,1.9,6.4,2.9,10.1,2.9
		c3.7,0,7.1-1.1,10-2.9v7.1v14.3V68.6z M77.6,60.6l-16.3-3.7c-0.1,0-0.2-0.2-0.2-0.3V42.3c0-0.1,0.1-0.3,0.2-0.3l16.3-3.7V60.6z"/>
	<path id="XMLID_245_" fill="#4B494A" d="M50.6,60.2H30.3c-0.7,0-1.2,0.5-1.2,1.2s0.5,1.2,1.2,1.2h20.2c0.7,0,1.2-0.5,1.2-1.2
		S51.2,60.2,50.6,60.2z"/>
	<path id="XMLID_248_" fill="#4B494A" d="M15.8,27.5c2.9,0,5.2-2.3,5.2-5.2c0-2.8-2.3-5.2-5.2-5.2s-5.2,2.3-5.2,5.2
		C10.6,25.2,13,27.5,15.8,27.5z M15.8,19.6c1.5,0,2.7,1.2,2.7,2.7c0,1.5-1.2,2.7-2.7,2.7s-2.7-1.2-2.7-2.7
		C13.1,20.8,14.3,19.6,15.8,19.6z"/>
	<path id="XMLID_251_" fill="#4B494A" d="M48.6,26.3c4,0,7.2-3.2,7.2-7.2c0-4-3.2-7.2-7.2-7.2c-4,0-7.2,3.2-7.2,7.2
		C41.4,23.1,44.6,26.3,48.6,26.3z M48.6,14.3c2.6,0,4.8,2.1,4.8,4.8s-2.2,4.8-4.8,4.8s-4.8-2.1-4.8-4.8S45.9,14.3,48.6,14.3z"/>
</g>
</svg>
