<?xml version="1.0" encoding="utf-8"?>
<!-- Generator: Adobe Illustrator 18.0.0, SVG Export Plug-In . SVG Version: 6.00 Build 0)  -->
<!DOCTYPE svg PUBLIC "-//W3C//DTD SVG 1.1//EN" "http://www.w3.org/Graphics/SVG/1.1/DTD/svg11.dtd">
<svg version="1.1" id="Layer_1" xmlns="http://www.w3.org/2000/svg" xmlns:xlink="http://www.w3.org/1999/xlink" x="0px" y="0px"
	 viewBox="0 0 90 74" enable-background="new 0 0 90 74" xml:space="preserve">
<g id="megaphone">
	<path id="XMLID_328_" fill="#4B494A" d="M65,17c-0.3-0.6-1-0.9-1.6-0.6l-26,11.7c-0.6,0.3-0.9,1-0.6,1.6c0.2,0.5,0.7,0.7,1.1,0.7
		c0.2,0,0.3,0,0.5-0.1l26-11.7C65,18.4,65.3,17.7,65,17z"/>
	<path id="XMLID_363_" fill="#4B494A" d="M42.9,45.5c-0.7,0.1-1.1,0.8-1,1.4c0.1,0.6,0.6,1,1.2,1c0.1,0,0.1,0,0.2,0L71,43
		c0.7-0.1,1.1-0.8,1-1.4c-0.1-0.7-0.8-1.1-1.4-1L42.9,45.5z"/>
	<path id="XMLID_366_" fill="#4B494A" d="M89.9,48.9l-14.4-47c-0.4-1.3-1.8-2.1-3.2-1.7L69.8,1c-1.3,0.4-2.1,1.8-1.7,3.2l0.2,0.5
		l-61,28c-0.2-0.5-0.5-0.9-1-1.1c-0.5-0.3-1.1-0.3-1.7-0.2l-3,0.9c-0.6,0.2-1.1,0.6-1.3,1.1c-0.3,0.5-0.3,1.1-0.2,1.7l8.8,28.6
		c0.3,1,1.2,1.6,2.2,1.6c0.2,0,0.4,0,0.7-0.1l3-0.9c0.6-0.2,1.1-0.6,1.3-1.1c0.2-0.5,0.6-1,0.5-1.5L30,59.5c0,0,0,0,0,0
		c1,8.3,9.6,14.3,18.8,14.3c10.8,0,19.4-8.1,19.4-18c0-0.9-0.2-1.9-0.4-2.8l14.6-2.4l0.1,0.5c0.3,1.1,1.3,1.8,2.4,1.8
		c0.2,0,0.5,0,0.7-0.1l2.5-0.8c0.6-0.2,1.2-0.6,1.5-1.2C90,50.3,90.1,49.6,89.9,48.9z M11.2,62.7L2.5,34.6l2.7-0.8L6,35.6
		c0,0,0,0,0,0l6,20.1l1.8,6.2L11.2,62.7z M65.5,55.9c0,8.5-7.7,15.5-17.1,15.5c-8,0-15-5.2-16.7-12.3l2.4-0.4
		C35.6,64.7,41.5,69,48.4,69c8.1,0,14.7-5.9,14.7-13.1c0-0.7-0.1-1.3-0.2-2l2.3-0.4C65.4,54.3,65.5,55.1,65.5,55.9z M60.5,54.3
		c0.1,0.5,0.2,1.1,0.2,1.6c0,5.9-5.5,10.6-12.2,10.6c-5.7,0-10.6-3.5-11.9-8.2L60.5,54.3z M81.7,48.3L15.6,59.4l-0.1-0.3L8.1,35
		L69,7.1l9.7,31.7L81.7,48.3z M85,50.5L70.6,3.4l2.5-0.7l14.4,47.1L85,50.5z"/>
</g>
</svg>
