<?xml version="1.0" encoding="utf-8"?>
<!-- Generator: Adobe Illustrator 18.0.0, SVG Export Plug-In . SVG Version: 6.00 Build 0)  -->
<!DOCTYPE svg PUBLIC "-//W3C//DTD SVG 1.1//EN" "http://www.w3.org/Graphics/SVG/1.1/DTD/svg11.dtd">
<svg version="1.1" id="Layer_1" xmlns="http://www.w3.org/2000/svg" xmlns:xlink="http://www.w3.org/1999/xlink" x="0px" y="0px"
	 viewBox="0 0 70 8" enable-background="new 0 0 70 8" xml:space="preserve">
<g>
	<g>
		<path fill="#3F3E3E" d="M68.9,3.6c0,0-1.9-2.7-3.9-2.7v-1c3,0,4.7,3.1,4.8,3.3L68.9,3.6z"/>
	</g>
	<g>
		<path fill="#3F3E3E" d="M61.1,3.6l-0.9-0.5C60.3,3,62-0.1,65-0.1v1C63,0.9,61.2,3.6,61.1,3.6z"/>
	</g>
	<g>
		<path fill="#3F3E3E" d="M56,6.9c-3,0-4.5-3.1-4.5-3.3l0.8-0.5c0,0,1.8,2.7,3.8,2.7V6.9z"/>
	</g>
	<g>
		<path fill="#3F3E3E" d="M56,6.9v-1c3,0,4.1-2.7,4.1-2.7l0.8,0.5C60.8,3.8,59,6.9,56,6.9z"/>
	</g>
	<g>
		<g>
			<path fill="#3F3E3E" d="M51.8,3.7c0,0-1.8-2.7-3.8-2.7v-1c3,0,4.7,3.1,4.7,3.3L51.8,3.7z"/>
		</g>
		<g>
			<path fill="#3F3E3E" d="M44.1,3.7l-0.9-0.5C43.3,3.1,45-0.1,48-0.1v1C45,0.9,44.1,3.6,44.1,3.7z"/>
		</g>
		<g>
			<path fill="#3F3E3E" d="M39,6.9c-3,0-4.5-3.1-4.6-3.3l0.8-0.5c0,0,1.8,2.7,3.8,2.7V6.9z"/>
		</g>
		<g>
			<path fill="#3F3E3E" d="M39,6.9v-1c3,0,4-2.7,4-2.7l0.8,0.5C43.8,3.8,42,6.9,39,6.9z"/>
		</g>
	</g>
	<g>
		<path fill="#3F3E3E" d="M34.7,3.7C34.7,3.7,33,1,31,1V0c3,0,4.6,3.1,4.7,3.3L34.7,3.7z"/>
	</g>
	<g>
		<path fill="#3F3E3E" d="M27,3.7l-0.8-0.5C26.2,3.1,28,0,31,0v1C28,1,27,3.7,27,3.7z"/>
	</g>
	<g>
		<path fill="#3F3E3E" d="M22,7c-3,0-4.6-3.1-4.7-3.3l0.8-0.5C18.2,3.3,20,6,22,6V7z"/>
	</g>
	<g>
		<path fill="#3F3E3E" d="M22,7V6c2,0,3.9-2.7,3.9-2.7l0.9,0.5C26.7,3.9,25,7,22,7z"/>
	</g>
	<g>
		<g>
			<path fill="#3F3E3E" d="M17.7,3.8C17.6,3.8,16,1,14,1V0c3,0,4.6,3.1,4.7,3.3L17.7,3.8z"/>
		</g>
		<g>
			<path fill="#3F3E3E" d="M9.9,3.8L9.1,3.3C9.2,3.2,11,0,14,0v1C11,1,9.9,3.8,9.9,3.8z"/>
		</g>
		<g>
			<path fill="#3F3E3E" d="M5,7.1c-3,0-4.7-3.1-4.8-3.3l0.9-0.5c0,0,1.9,2.7,3.9,2.7V7.1z"/>
		</g>
		<g>
			<path fill="#3F3E3E" d="M5,7.1v-1c2,0,3.8-2.7,3.9-2.7l0.9,0.5C9.7,3.9,8,7.1,5,7.1z"/>
		</g>
	</g>
</g>
</svg>
