<?xml version="1.0" encoding="utf-8"?>
<!-- Generator: Adobe Illustrator 18.0.0, SVG Export Plug-In . SVG Version: 6.00 Build 0)  -->
<!DOCTYPE svg PUBLIC "-//W3C//DTD SVG 1.1//EN" "http://www.w3.org/Graphics/SVG/1.1/DTD/svg11.dtd">
<svg version="1.1" id="Layer_1" xmlns="http://www.w3.org/2000/svg" xmlns:xlink="http://www.w3.org/1999/xlink" x="0px" y="0px"
	 viewBox="0 0 70 70" enable-background="new 0 0 70 70" xml:space="preserve">
<g>
	<g>
		<g>
			<path fill="#4B494A" d="M55.7,64.7H14.5c-1,0-1.9-0.8-1.9-1.9c0-1,0.8-1.9,1.9-1.9h41.2c3.1,0,5.6-2.5,5.6-5.6
				c0-1,0.8-1.9,1.9-1.9c1,0,1.9,0.8,1.9,1.9C65.1,60.4,60.9,64.7,55.7,64.7z"/>
		</g>
		<g>
			<path fill="#4B494A" d="M65.1,55.3h-3.8v-45c0-1-0.8-1.9-1.9-1.9H25.7c-1,0-1.9,0.8-1.9,1.9v45h-3.8v-45c0-3.1,2.5-5.6,5.6-5.6
				h33.8c3.1,0,5.6,2.5,5.6,5.6V55.3z"/>
		</g>
		<g>
			<path fill="#4B494A" d="M14.5,64.7c-5.2,0-9.4-4.2-9.4-9.4c0-1,0.8-1.9,1.9-1.9c1,0,1.9,0.8,1.9,1.9c0,3.1,2.5,5.6,5.6,5.6
				c3.1,0,5.6-2.5,5.6-5.6c0-1,0.8-1.9,1.9-1.9c1,0,1.9,0.8,1.9,1.9C23.8,60.4,19.6,64.7,14.5,64.7z"/>
		</g>
		<g>
			<path fill="#4B494A" d="M8.8,55.3H5.1V29c0-3.1,2.5-5.6,5.6-5.6h12.2v3.8H10.7c-1,0-1.9,0.8-1.9,1.9V55.3z"/>
		</g>
		<g>
			<path fill="#4B494A" d="M55.7,32.8H29.5c-1,0-1.9-0.8-1.9-1.9c0-1,0.8-1.9,1.9-1.9h26.2c1,0,1.9,0.8,1.9,1.9
				C57.6,31.9,56.8,32.8,55.7,32.8z"/>
		</g>
		<g>
			<path fill="#4B494A" d="M42.6,25.3H29.5c-1,0-1.9-0.8-1.9-1.9c0-1,0.8-1.9,1.9-1.9h13.1c1,0,1.9,0.8,1.9,1.9
				C44.5,24.4,43.6,25.3,42.6,25.3z"/>
		</g>
		<g>
			<path fill="#4B494A" d="M55.7,40.3H29.5c-1,0-1.9-0.8-1.9-1.9c0-1,0.8-1.9,1.9-1.9h26.2c1,0,1.9,0.8,1.9,1.9
				C57.6,39.4,56.8,40.3,55.7,40.3z"/>
		</g>
		<g>
			<path fill="#4B494A" d="M55.7,47.8H29.5c-1,0-1.9-0.8-1.9-1.9c0-1,0.8-1.9,1.9-1.9h26.2c1,0,1.9,0.8,1.9,1.9
				C57.6,46.9,56.8,47.8,55.7,47.8z"/>
		</g>
	</g>
	
		<rect x="32.2" y="-11.9" transform="matrix(0.7071 0.7071 -0.7071 0.7071 34.8739 -14.5497)" fill="#4B494A" width="5.6" height="93.4"/>
</g>
</svg>
